<svg width="26" height="26" viewBox="0 0 26 26" fill="none" xmlns="http://www.w3.org/2000/svg">
<path d="M7.88918 19.7279C7.80295 19.6417 7.73455 19.5394 7.68788 19.4268C7.64121 19.3142 7.61719 19.1935 7.61719 19.0715C7.61719 18.9496 7.64121 18.8289 7.68788 18.7163C7.73455 18.6037 7.80295 18.5014 7.88918 18.4152L18.4058 7.89852C18.4914 7.80985 18.5938 7.73912 18.7069 7.69043C18.8201 7.64175 18.9419 7.61609 19.0651 7.61496C19.1883 7.61383 19.3105 7.63726 19.4246 7.68386C19.5386 7.73046 19.6423 7.79932 19.7294 7.8864C19.8166 7.97349 19.8856 8.07706 19.9323 8.19108C19.979 8.3051 20.0025 8.42728 20.0015 8.55049C20.0005 8.6737 19.975 8.79547 19.9264 8.90871C19.8778 9.02194 19.8072 9.12437 19.7186 9.21001L9.20191 19.7267C9.02792 19.9004 8.79207 19.998 8.54617 19.998C8.30026 19.998 8.06441 19.9004 7.89042 19.7267L7.88918 19.7279Z" fill="white"/>
<path d="M7 8.55445C7 8.30835 7.09776 8.07232 7.27179 7.8983C7.44581 7.72428 7.68183 7.62651 7.92794 7.62651L19.0632 7.62651C19.3093 7.62651 19.5454 7.72428 19.7194 7.8983C19.8934 8.07232 19.9912 8.30835 19.9912 8.55445L19.9912 19.6897C19.9912 19.9358 19.8934 20.1719 19.7194 20.3459C19.5454 20.5199 19.3093 20.6177 19.0632 20.6177C18.8171 20.6177 18.5811 20.5199 18.4071 20.3459C18.233 20.1719 18.1353 19.9358 18.1353 19.6897L18.1353 9.48239L7.92794 9.4824C7.68183 9.4824 7.44581 9.38463 7.27179 9.21061C7.09776 9.03658 7 8.80056 7 8.55445Z" fill="white"/>
</svg>
