<svg width="29" height="29" viewBox="0 0 29 29" fill="none" xmlns="http://www.w3.org/2000/svg">
<path d="M23.1439 16.8744C22.9038 16.8744 22.6736 16.9698 22.5038 17.1395C22.3341 17.3093 22.2387 17.5395 22.2387 17.7796V22.8757C22.2387 23.1158 22.1434 23.346 21.9736 23.5157C21.8039 23.6855 21.5736 23.7809 21.3335 23.7809H3.61933C3.12058 23.7809 2.71415 23.3753 2.71415 22.8757V10.1037C2.71415 9.60405 3.12058 9.19853 3.61933 9.19853H13.6486C13.8887 9.19853 14.1189 9.10316 14.2887 8.93341C14.4584 8.76366 14.5538 8.53342 14.5538 8.29336C14.5538 8.05329 14.4584 7.82306 14.2887 7.6533C14.1189 7.48355 13.8887 7.38818 13.6486 7.38818H3.61933C2.12217 7.38818 0.903809 8.60655 0.903809 10.1037V22.8757C0.903809 24.3728 2.12217 25.5912 3.61933 25.5912H21.3335C22.8307 25.5912 24.0491 24.3728 24.0491 22.8757V17.7796C24.0491 17.5395 23.9537 17.3093 23.7839 17.1395C23.6142 16.9698 23.384 16.8744 23.1439 16.8744Z" fill="white"/>
<path d="M10.3546 12.4362C9.91198 12.6643 9.5409 13.0102 9.28219 13.4356C9.02347 13.8611 8.88714 14.3496 8.88819 14.8476V18.1315C8.88867 18.8521 9.17511 19.543 9.68461 20.0524C10.1941 20.5619 10.885 20.8484 11.6055 20.8489C12.1664 20.8485 12.7133 20.6739 13.1706 20.3492L15.4941 18.7072C15.8487 18.4563 16.1379 18.124 16.3375 17.7382C16.537 17.3524 16.6412 16.9244 16.6412 16.49C16.6412 16.0556 16.537 15.6276 16.3375 15.2418C16.1379 14.856 15.8487 14.5237 15.4941 14.2728L13.1706 12.6308C12.7644 12.3426 12.2867 12.172 11.7899 12.1376C11.2931 12.1033 10.7965 12.2066 10.3546 12.4362ZM14.8325 16.4905C14.8333 16.6354 14.7988 16.7783 14.7321 16.907C14.6654 17.0357 14.5685 17.1462 14.4496 17.2291L12.1269 18.8711C11.9919 18.9685 11.8323 19.026 11.6662 19.0372C11.5001 19.0484 11.3342 19.0128 11.1873 18.9344C11.039 18.8594 10.9145 18.7444 10.8282 18.6023C10.7418 18.4603 10.6969 18.2969 10.6985 18.1306V14.8467C10.6985 14.5018 10.8814 14.2013 11.1873 14.0429C11.3166 13.9749 11.4604 13.9392 11.6064 13.9388C11.7884 13.9388 11.9676 13.9958 12.126 14.1071L14.4496 15.7491C14.6931 15.9229 14.8325 16.1927 14.8325 16.4905ZM27.3682 8.59645L26.0131 8.10856C25.3947 7.88662 24.833 7.53055 24.3683 7.06592C23.9037 6.60128 23.5476 6.03958 23.3257 5.42111L22.8369 4.06516V4.06335C22.6875 3.65149 22.2929 3.37451 21.8548 3.37451C21.4167 3.37451 21.022 3.65149 20.8718 4.06516L20.3848 5.42111C20.1627 6.03942 19.8066 6.60094 19.342 7.06541C18.8774 7.52988 18.3157 7.88581 17.6973 8.10766L16.3396 8.59645C15.9277 8.7458 15.6507 9.14046 15.6507 9.57856C15.6507 10.0167 15.9277 10.4113 16.3414 10.5616L17.6973 11.0486C18.3158 11.2708 18.8774 11.6271 19.342 12.0919C19.8066 12.5566 20.1627 13.1184 20.3848 13.7369L20.8718 15.092C21.0211 15.5047 21.4158 15.7826 21.8548 15.7826C22.2938 15.7826 22.6884 15.5047 22.8369 15.092L23.3257 13.7369C23.5477 13.1184 23.9038 12.5566 24.3684 12.0919C24.8331 11.6271 25.3947 11.2708 26.0131 11.0486L27.3682 10.5616C27.7809 10.4122 28.0588 10.0176 28.0588 9.57856C28.0588 9.13955 27.7809 8.7449 27.3682 8.59645ZM21.8548 12.5638C21.2357 11.2535 20.1813 10.1984 18.8713 9.57856C20.1814 8.95929 21.2359 7.90447 21.8548 6.59421C22.474 7.90454 23.5288 8.95934 24.8391 9.57856C23.5286 10.1979 22.4737 11.2531 21.8548 12.5638Z" fill="white"/>
</svg>
