<svg width="29" height="29" viewBox="0 0 29 29" fill="none" xmlns="http://www.w3.org/2000/svg">
<g clip-path="url(#clip0_13_50)">
<path d="M14.5005 22.4317C12.1258 22.4317 10.1953 20.5011 10.1953 18.1265C10.1953 15.7518 12.1258 13.8213 14.5005 13.8213C16.8751 13.8213 18.8057 15.7518 18.8057 18.1265C18.8057 20.5011 16.8751 22.4317 14.5005 22.4317ZM14.5005 15.1808C12.8763 15.1808 11.5548 16.5023 11.5548 18.1265C11.5548 19.7507 12.8763 21.0721 14.5005 21.0721C16.1247 21.0721 17.4461 19.7507 17.4461 18.1265C17.4461 16.5023 16.1247 15.1808 14.5005 15.1808Z" fill="white"/>
<path d="M19.0341 28.7763H9.97054C9.79025 28.7763 9.61735 28.7047 9.48987 28.5772C9.36239 28.4498 9.29077 28.2769 9.29077 28.0966V26.2839C9.29077 23.4107 11.6292 21.0723 14.5023 21.0723C17.3755 21.0723 19.7138 23.4107 19.7138 26.2839V28.0966C19.7138 28.2769 19.6422 28.4498 19.5147 28.5772C19.3873 28.7047 19.2144 28.7763 19.0341 28.7763ZM10.6503 27.4168H18.3543V26.2839C18.3543 24.1603 16.6268 22.4319 14.5023 22.4319C12.3778 22.4319 10.6503 24.1603 10.6503 26.2839V27.4168ZM19.9404 20.6192C19.083 20.6192 18.2528 20.3654 17.5404 19.8868C17.3976 19.7836 17.3005 19.629 17.2694 19.4556C17.2384 19.2822 17.2759 19.1035 17.374 18.9572C17.4721 18.8109 17.6232 18.7084 17.7954 18.6713C17.9677 18.6342 18.1476 18.6655 18.2972 18.7584C18.7827 19.0855 19.355 19.2601 19.9404 19.2596C21.5646 19.2596 22.8861 17.9382 22.8861 16.314C22.8861 14.6898 21.5646 13.3683 19.9404 13.3683C18.6897 13.3683 17.5739 14.1605 17.167 15.3396C17.1378 15.4241 17.0923 15.502 17.0331 15.5688C16.9738 15.6357 16.902 15.6902 16.8216 15.7293C16.7413 15.7684 16.654 15.7913 16.5649 15.7967C16.4757 15.802 16.3863 15.7898 16.3019 15.7606C16.2174 15.7315 16.1395 15.686 16.0727 15.6267C16.0058 15.5675 15.9513 15.4956 15.9122 15.4153C15.8731 15.3349 15.8502 15.2477 15.8448 15.1585C15.8395 15.0693 15.8517 14.98 15.8809 14.8955C16.1735 14.0521 16.7217 13.3208 17.4493 12.8034C18.1769 12.286 19.0477 12.0083 19.9404 12.0088C22.3151 12.0088 24.2456 13.9393 24.2456 16.314C24.2456 18.6886 22.3151 20.6192 19.9404 20.6192Z" fill="white"/>
<path d="M24.4717 26.9636H19.0336C18.8533 26.9636 18.6804 26.892 18.553 26.7645C18.4255 26.6371 18.3539 26.4642 18.3539 26.2839C18.3539 26.1036 18.4255 25.9307 18.553 25.8032C18.6804 25.6757 18.8533 25.6041 19.0336 25.6041H23.792V24.4712C23.7933 23.4475 23.3881 22.4653 22.6654 21.7403C21.941 21.0207 20.961 20.6175 19.94 20.6192C18.6113 20.6192 17.3967 21.2899 16.6907 22.4128C16.5948 22.5655 16.4422 22.6738 16.2664 22.7139C16.0907 22.754 15.9062 22.7226 15.7535 22.6267C15.6009 22.5308 15.4926 22.3782 15.4525 22.2024C15.4124 22.0267 15.4437 21.8422 15.5396 21.6896C16.0057 20.9435 16.6544 20.3288 17.4245 19.9035C18.1945 19.4783 19.0603 19.2567 19.94 19.2596C21.3267 19.2596 22.6355 19.7989 23.6261 20.7796C24.1104 21.2646 24.4943 21.8402 24.756 22.4736C25.0178 23.107 25.1522 23.7858 25.1515 24.4712V26.2839C25.1515 26.4642 25.0799 26.6371 24.9524 26.7645C24.8249 26.892 24.652 26.9636 24.4717 26.9636ZM9.06373 20.6192C6.68908 20.6192 4.75854 18.6886 4.75854 16.314C4.75854 13.9393 6.68908 12.0088 9.06373 12.0088C10.8946 12.0088 12.526 13.1689 13.1233 14.8955C13.1822 15.066 13.171 15.2528 13.0921 15.415C13.0132 15.5771 12.8732 15.7013 12.7027 15.7602C12.5323 15.8191 12.3455 15.8079 12.1833 15.729C12.0212 15.6501 11.897 15.5101 11.8381 15.3396C11.638 14.7634 11.2632 14.2639 10.766 13.9106C10.2687 13.5573 9.67371 13.3677 9.06373 13.3683C7.43954 13.3683 6.11808 14.6898 6.11808 16.314C6.11808 17.9382 7.43954 19.2596 9.06373 19.2596C9.64918 19.2601 10.2214 19.0855 10.7069 18.7584C10.7809 18.705 10.8649 18.6669 10.9539 18.6466C11.0429 18.6263 11.135 18.6242 11.2249 18.6402C11.3147 18.6563 11.4004 18.6903 11.4768 18.7402C11.5532 18.7902 11.6188 18.8549 11.6696 18.9307C11.7205 19.0065 11.7555 19.0918 11.7727 19.1814C11.7899 19.2711 11.7888 19.3633 11.7696 19.4525C11.7504 19.5417 11.7134 19.6261 11.6609 19.7008C11.6083 19.7754 11.5413 19.8387 11.4638 19.8868C10.7546 20.3647 9.91885 20.6198 9.06373 20.6192Z" fill="white"/>
<path d="M9.96945 26.9635H4.53133C4.35104 26.9635 4.17814 26.8919 4.05066 26.7644C3.92318 26.637 3.85156 26.4641 3.85156 26.2838V24.4711C3.85156 23.0843 4.39175 21.7747 5.37152 20.7849C5.85652 20.3007 6.43216 19.9167 7.06557 19.655C7.69898 19.3933 8.37775 19.2589 9.0631 19.2595C10.8613 19.2595 12.5072 20.1677 13.4625 21.6895C13.5113 21.765 13.5445 21.8495 13.5603 21.9381C13.5761 22.0266 13.5742 22.1174 13.5547 22.2052C13.5352 22.2929 13.4985 22.376 13.4467 22.4495C13.3948 22.523 13.329 22.5854 13.2528 22.6333C13.1767 22.6811 13.0918 22.7134 13.0031 22.7282C12.9144 22.743 12.8237 22.7401 12.7361 22.7195C12.6485 22.699 12.5659 22.6613 12.493 22.6087C12.4202 22.556 12.3584 22.4894 12.3115 22.4127C11.9674 21.8621 11.4884 21.4083 10.92 21.0944C10.3516 20.7806 9.71243 20.6169 9.0631 20.6191C8.03949 20.6178 7.05726 21.0231 6.33225 21.7457C5.61256 22.4699 5.20938 23.45 5.21109 24.4711V25.604H9.96945C10.1497 25.604 10.3226 25.6756 10.4501 25.8031C10.5776 25.9306 10.6492 26.1035 10.6492 26.2838C10.6492 26.4641 10.5776 26.637 10.4501 26.7644C10.3226 26.8919 10.1497 26.9635 9.96945 26.9635ZM17.262 10.9845C17.0807 10.9845 16.9012 10.941 16.7336 10.854L14.5012 9.67936L12.2689 10.8531C12.0819 10.9519 11.8709 10.9961 11.66 10.9808C11.4491 10.9654 11.2468 10.891 11.0761 10.7661C10.9045 10.6423 10.7712 10.4726 10.6916 10.2766C10.6119 10.0805 10.5891 9.86603 10.6257 9.65761L11.0516 7.17238L9.24618 5.41315C8.9353 5.11043 8.82473 4.66541 8.95977 4.25211C9.09482 3.83881 9.44467 3.54334 9.87519 3.4808L12.3695 3.11826L13.4843 0.856907C13.6792 0.468081 14.0689 0.226085 14.5012 0.226085C14.9336 0.226085 15.3242 0.468081 15.5172 0.857813L16.6321 3.11917L19.1273 3.48171C19.5578 3.54334 19.9085 3.83972 20.0427 4.25211C20.1768 4.6645 20.0671 5.11133 19.7563 5.41406L17.9517 7.17329L18.3777 9.65942C18.4502 10.0863 18.278 10.5114 17.9263 10.767C17.7278 10.912 17.4958 10.9845 17.262 10.9845ZM10.5241 4.76057L12.0858 6.28325C12.3541 6.54337 12.4755 6.91951 12.4121 7.2884L12.0432 9.43646L13.9746 8.42134C14.1371 8.33569 14.318 8.29093 14.5017 8.29093C14.6853 8.29093 14.8662 8.33569 15.0287 8.42134L16.9593 9.43646L16.5913 7.28568C16.5278 6.91951 16.6484 6.54337 16.9176 6.28234L18.4783 4.76148L16.3212 4.44698C16.1393 4.42075 15.9666 4.3507 15.8179 4.24285C15.6691 4.13501 15.5489 3.99261 15.4674 3.82794L14.5012 1.87202L13.5369 3.82703C13.371 4.16238 13.0529 4.3935 12.6831 4.44698L10.525 4.76148L10.5241 4.76057ZM24.4711 5.55907H22.6584C22.4781 5.55907 22.3052 5.48745 22.1777 5.35997C22.0503 5.23249 21.9786 5.05959 21.9786 4.87931C21.9786 4.69902 22.0503 4.52612 22.1777 4.39864C22.3052 4.27116 22.4781 4.19954 22.6584 4.19954H24.4711C24.6514 4.19954 24.8243 4.27116 24.9518 4.39864C25.0793 4.52612 25.1509 4.69902 25.1509 4.87931C25.1509 5.05959 25.0793 5.23249 24.9518 5.35997C24.8243 5.48745 24.6514 5.55907 24.4711 5.55907ZM21.9252 2.38049C21.7714 2.3807 21.6221 2.32877 21.5017 2.23318C21.3812 2.13759 21.2967 2.00398 21.262 1.85419C21.2273 1.70439 21.2444 1.54725 21.3105 1.40842C21.3767 1.26959 21.4879 1.15729 21.6261 1.08984L23.2566 0.294967C23.3368 0.255809 23.424 0.232834 23.5131 0.227356C23.6022 0.221877 23.6915 0.234002 23.7759 0.263038C23.8603 0.292074 23.9382 0.337453 24.0051 0.396583C24.0719 0.455714 24.1265 0.527437 24.1657 0.60766C24.2048 0.687882 24.2278 0.775032 24.2333 0.864133C24.2388 0.953234 24.2266 1.04254 24.1976 1.12696C24.1686 1.21137 24.1232 1.28924 24.0641 1.35612C24.0049 1.423 23.9332 1.47757 23.853 1.51673L22.2234 2.31161C22.1307 2.35674 22.0282 2.38029 21.9252 2.38049ZM23.553 9.52981C23.45 9.52961 23.3483 9.50606 23.2557 9.46093L21.6261 8.66696C21.4639 8.58776 21.3399 8.44739 21.2813 8.27673C21.2226 8.10608 21.2342 7.91912 21.3134 7.75698C21.3926 7.59485 21.533 7.47081 21.7036 7.41217C21.8743 7.35353 22.0612 7.36508 22.2234 7.44429L23.8521 8.23916C23.9903 8.30661 24.1015 8.41892 24.1676 8.55774C24.2337 8.69657 24.2508 8.85371 24.2161 9.00351C24.1814 9.15331 24.0969 9.28691 23.9765 9.3825C23.856 9.47809 23.7068 9.53002 23.553 9.52981ZM6.34404 5.55907H4.53133C4.35104 5.55907 4.17814 5.48745 4.05066 5.35997C3.92318 5.23249 3.85156 5.05959 3.85156 4.87931C3.85156 4.69902 3.92318 4.52612 4.05066 4.39864C4.17814 4.27116 4.35104 4.19954 4.53133 4.19954H6.34404C6.52432 4.19954 6.69722 4.27116 6.8247 4.39864C6.95218 4.52612 7.0238 4.69902 7.0238 4.87931C7.0238 5.05959 6.95218 5.23249 6.8247 5.35997C6.69722 5.48745 6.52432 5.55907 6.34404 5.55907ZM7.07728 2.38049C6.97425 2.38029 6.87261 2.35674 6.77999 2.31161L5.15037 1.51673C4.99267 1.43523 4.87312 1.29527 4.81726 1.12677C4.7614 0.958274 4.77367 0.774611 4.85144 0.615042C4.92921 0.455472 5.06632 0.332655 5.23345 0.272844C5.40059 0.213033 5.58449 0.220973 5.74584 0.294967L7.37547 1.08984C7.51365 1.15729 7.62489 1.26959 7.69101 1.40842C7.75713 1.54725 7.77423 1.70439 7.73952 1.85419C7.7048 2.00398 7.62033 2.13759 7.49988 2.23318C7.37944 2.32877 7.23105 2.3807 7.07728 2.38049ZM5.44946 9.52981C5.2957 9.53002 5.1464 9.47809 5.02596 9.3825C4.90551 9.28691 4.82103 9.15331 4.78632 9.00351C4.7516 8.85371 4.7687 8.69657 4.83482 8.55774C4.90095 8.41892 5.01218 8.30661 5.15037 8.23916L6.77909 7.44429C6.94122 7.3652 7.12814 7.35377 7.2987 7.41249C7.46927 7.47122 7.60953 7.5953 7.68861 7.75743C7.7677 7.91957 7.77914 8.10648 7.72041 8.27705C7.66168 8.44762 7.5376 8.58788 7.37547 8.66696L5.74675 9.46093C5.65409 9.50594 5.55248 9.52949 5.44946 9.52981Z" fill="white"/>
</g>
<defs>
<clipPath id="clip0_13_50">
<rect width="29.0033" height="29.0033" fill="white"/>
</clipPath>
</defs>
</svg>
