<svg width="28" height="28" viewBox="0 0 28 28" fill="none" xmlns="http://www.w3.org/2000/svg">
<g clip-path="url(#clip0_13_89)">
<path fill-rule="evenodd" clip-rule="evenodd" d="M10.8737 1.07057C10.8737 0.78664 10.9865 0.514338 11.1872 0.313569C11.388 0.112799 11.6603 8.4043e-06 11.9442 8.4043e-06C15.1694 -0.00373739 18.27 1.24478 20.5926 3.4824C22.9152 5.72003 24.2784 8.77199 24.3948 11.995C24.5112 15.2181 23.3718 18.3604 21.2167 20.7598C19.0615 23.1591 16.0591 24.6281 12.8421 24.857V26.4072H14.368C14.6519 26.4072 14.9242 26.52 15.125 26.7208C15.3258 26.9215 15.4385 27.1938 15.4385 27.4778C15.4385 27.7617 15.3258 28.034 15.125 28.2348C14.9242 28.4355 14.6519 28.5483 14.368 28.5483H9.17504C8.89111 28.5483 8.61881 28.4355 8.41804 28.2348C8.21727 28.034 8.10448 27.7617 8.10448 27.4778C8.10448 27.1938 8.21727 26.9215 8.41804 26.7208C8.61881 26.52 8.89111 26.4072 9.17504 26.4072H10.701V24.8271C8.4113 24.6002 6.23007 23.7402 4.40176 22.3434C3.19131 21.4198 3.27268 19.744 4.21049 18.7891L6.51719 16.4424C5.52827 14.9887 5.12439 13.2153 5.38628 11.4767C5.64816 9.73811 6.55653 8.16239 7.92981 7.06448C9.30309 5.96658 11.0401 5.42738 12.7937 5.55464C14.5473 5.68191 16.1883 6.46627 17.3887 7.75096C18.589 9.03564 19.2604 10.726 19.2685 12.4842C19.2766 14.2424 18.6209 15.9389 17.4324 17.2346C16.2439 18.5303 14.6103 19.3298 12.8579 19.4732C11.1056 19.6166 9.36365 19.0935 7.9803 18.0083L5.73782 20.2907C5.70724 20.3204 5.6829 20.3559 5.66623 20.3951C5.64956 20.4343 5.6409 20.4765 5.64076 20.5191C5.64007 20.5429 5.64517 20.5665 5.65561 20.5879C5.66605 20.6093 5.68153 20.6278 5.70071 20.6419C7.00207 21.6326 8.5206 22.2994 10.1307 22.5869C11.7408 22.8744 13.3963 22.7744 14.9601 22.2953C16.5239 21.8162 17.9512 20.9716 19.1239 19.8315C20.2966 18.6914 21.1811 17.2884 21.7041 15.7387C22.227 14.189 22.3736 12.537 22.1315 10.9194C21.8895 9.30187 21.2658 7.76516 20.3121 6.43642C19.3583 5.10768 18.102 4.02508 16.6469 3.27817C15.1918 2.53126 13.5798 2.14151 11.9442 2.14113C11.8035 2.14113 11.6642 2.11339 11.5342 2.0595C11.4042 2.00561 11.2862 1.92663 11.1867 1.82707C11.0873 1.72751 11.0085 1.60932 10.9548 1.47927C10.901 1.34922 10.8735 1.21128 10.8737 1.07057ZM12.2911 7.67951C11.0077 7.67951 9.77692 8.18932 8.86944 9.0968C7.96197 10.0043 7.45215 11.2351 7.45215 12.5184C7.45215 13.8018 7.96197 15.0326 8.86944 15.9401C9.77692 16.8476 11.0077 17.3574 12.2911 17.3574C13.5745 17.3574 14.8053 16.8476 15.7127 15.9401C16.6202 15.0326 17.13 13.8018 17.13 12.5184C17.13 11.2351 16.6202 10.0043 15.7127 9.0968C14.8053 8.18932 13.5745 7.67951 12.2911 7.67951Z" fill="white"/>
</g>
<defs>
<clipPath id="clip0_13_89">
<rect width="28" height="28" fill="white"/>
</clipPath>
</defs>
</svg>
