<svg width="37" height="37" viewBox="0 0 37 37" fill="none" xmlns="http://www.w3.org/2000/svg">
<g clip-path="url(#clip0_13_39)">
<path d="M35.9863 4.66558C35.8652 4.58242 32.9364 2.63086 25.7623 2.63086C18.5879 2.63086 15.6587 4.58242 15.5374 4.66558C15.3933 4.7645 15.2754 4.89702 15.194 5.05169C15.1125 5.20637 15.0699 5.37855 15.0699 5.55336V7.69181C13.4332 8.01612 11.2494 8.66553 8.54078 9.93621C2.04582 12.9836 0.223129 15.9945 0.148513 16.1211C0.0599774 16.2719 0.00948495 16.442 0.00139706 16.6167C-0.00669082 16.7914 0.027869 16.9654 0.102091 17.1237L4.47718 26.4485C6.6276 31.0319 11.2049 33.8229 16.0765 33.8229C17.1556 33.8229 18.2494 33.6861 19.3341 33.4013C19.3374 33.4004 19.3408 33.3996 19.3441 33.3984H19.3443C19.4673 33.3649 19.5833 33.3098 19.687 33.2358C21.5941 31.8724 23.0284 30.0669 23.9323 28.0452C24.4675 28.2185 25.0136 28.3565 25.567 28.4582C25.5993 28.4643 25.6316 28.4688 25.6644 28.4715H25.6647C25.7622 28.4805 25.8604 28.476 25.9567 28.4581C32.0394 27.3391 36.4541 22.0382 36.4541 15.8536V5.55336C36.4541 5.19843 36.2791 4.86636 35.9863 4.66558ZM6.42597 25.5341L2.32534 16.7939C3.04018 15.9465 5.04485 13.9545 9.45498 11.8853C13.866 9.8161 16.6786 9.54768 17.7869 9.53999L21.8875 18.2801C24.0448 22.8786 22.6579 28.3489 18.5954 31.3676C13.6771 32.5622 8.58336 30.1325 6.42597 25.5341ZM34.3011 15.8535C34.3011 20.9331 30.722 25.2963 25.762 26.3034C25.3842 26.2267 25.0108 26.1295 24.6435 26.0124C25.1607 24.008 25.1943 21.8785 24.6951 19.8101C26.0298 19.4398 27.5214 19.7775 28.5685 20.8246C28.7788 21.0349 29.0544 21.1401 29.3297 21.1401C29.605 21.1401 29.8807 21.0349 30.0909 20.8246C30.5112 20.4044 30.5112 19.7231 30.0909 19.3025C28.4489 17.6608 26.0988 17.1482 24.0146 17.7651C23.9574 17.631 23.8979 17.4978 23.8363 17.3657L22.0908 13.645C22.9602 13.6378 23.7768 13.2965 24.3923 12.6807C24.8125 12.2605 24.8125 11.5788 24.3923 11.1586C23.972 10.7383 23.2903 10.7383 22.87 11.1586C22.7644 11.2649 22.6386 11.3491 22.5002 11.4065C22.3617 11.4639 22.2132 11.4933 22.0633 11.4929C21.7588 11.4929 21.4723 11.3741 21.2567 11.1586C21.1288 11.0305 20.9706 10.9368 20.7967 10.8863L19.4615 8.04083C19.3873 7.88256 19.2756 7.74475 19.1362 7.6393C18.9968 7.53386 18.8338 7.46395 18.6613 7.43564C18.609 7.42709 18.1245 7.3539 17.2226 7.40588V6.19721C18.221 5.73634 20.8774 4.78348 25.7623 4.78348C30.6338 4.78348 33.2944 5.73548 34.3011 6.19913V15.8535Z" fill="#121443"/>
<path d="M29.9186 13.6454C30.7987 13.6454 31.6257 13.3031 32.2479 12.6809C32.6681 12.2604 32.6681 11.579 32.2479 11.1584C31.8273 10.7382 31.146 10.7382 30.7255 11.1584C30.6198 11.2647 30.4941 11.349 30.3557 11.4064C30.2172 11.4638 30.0688 11.4931 29.9189 11.4928C29.769 11.4932 29.6205 11.4638 29.482 11.4064C29.3435 11.349 29.2178 11.2647 29.1121 11.1584C28.6918 10.7382 28.0102 10.7382 27.5897 11.1584C27.1694 11.579 27.1694 12.2604 27.5897 12.6809C28.2118 13.3031 29.0389 13.6454 29.9186 13.6454H29.9186ZM11.8953 20.3128C12.0975 19.7538 11.808 19.1366 11.249 18.9347C10.4213 18.6357 9.52709 18.6769 8.73059 19.0507C7.93409 19.4245 7.33082 20.0858 7.03179 20.9133C6.82994 21.4722 7.11944 22.0894 7.67849 22.2914C7.79917 22.335 7.9227 22.3556 8.04417 22.3556C8.48474 22.3556 8.89827 22.083 9.05654 21.6447C9.10713 21.5036 9.18519 21.3739 9.28621 21.2632C9.38723 21.1524 9.5092 21.0628 9.64507 20.9994C9.7806 20.9355 9.92745 20.899 10.0772 20.8922C10.2269 20.8853 10.3764 20.9082 10.5173 20.9594C11.0762 21.1614 11.6935 20.8721 11.8953 20.3128ZM14.7905 18.9547C14.9116 18.9981 15.0347 19.019 15.1563 19.019C15.5968 19.019 16.0104 18.7464 16.1687 18.3081C16.2192 18.167 16.2972 18.0373 16.3983 17.9265C16.4993 17.8158 16.6212 17.7262 16.7571 17.6629C16.8926 17.5988 17.0395 17.5622 17.1892 17.5553C17.3389 17.5484 17.4885 17.5714 17.6293 17.6228C18.1886 17.8247 18.8055 17.5352 19.0077 16.9761C19.2096 16.4169 18.9201 15.7999 18.3611 15.5981C16.6528 14.9809 14.7611 15.8684 14.144 17.5764C13.942 18.1357 14.2316 18.7526 14.7905 18.9548V18.9547ZM19.5333 23.1761C19.7352 22.617 19.4457 22.0001 18.8867 21.7979C18.3277 21.5957 17.7105 21.8853 17.5086 22.4446C16.7646 24.5029 14.4846 25.5723 12.4265 24.8289C11.8673 24.6267 11.2503 24.9162 11.0485 25.4752C10.8463 26.0346 11.1358 26.6514 11.6948 26.8536C12.3599 27.0946 13.0619 27.2179 13.7693 27.2182C16.276 27.2182 18.6336 25.666 19.5333 23.1761Z" fill="#121443"/>
</g>
<defs>
<clipPath id="clip0_13_39">
<rect width="36.4538" height="36.4538" fill="white"/>
</clipPath>
</defs>
</svg>
