<svg width="26" height="30" viewBox="0 0 26 30" fill="none" xmlns="http://www.w3.org/2000/svg">
<path d="M24.7414 12.4984L19.7614 9.62207L14.6631 14.7204L19.7611 19.8184L24.7584 16.9325C25.5376 16.4591 26.0026 15.632 26.0026 14.7204C26.0026 13.8088 25.5373 12.9818 24.7414 12.4984Z" fill="#FFCE00"/>
<path d="M14.6632 14.7207L0.776333 0.733887C0.530237 0.977688 0.334915 1.26786 0.201661 1.58762C0.0684071 1.90737 -0.000134257 2.25038 1.97432e-07 2.59679V26.8021C1.97432e-07 27.5266 0.293331 28.182 0.776333 28.6653L14.6632 14.7207Z" fill="url(#paint0_linear_13_235)"/>
<path d="M14.6623 14.7206L19.7606 9.62228L19.7687 9.6142L12.9376 5.68107L3.93255 0.38863C3.12166 -0.111649 2.13838 -0.128925 1.31022 0.336801C1.12055 0.457368 0.947786 0.578302 0.775391 0.733421L14.6623 14.7206Z" fill="#00F076"/>
<path d="M0.775391 28.6649C0.947786 28.82 1.12055 28.941 1.31022 29.0615C1.72412 29.2858 2.15566 29.4067 2.58683 29.4067C3.05256 29.4067 3.50101 29.2689 3.91527 29.0274L12.9372 23.7603L19.7683 19.8271L19.7603 19.8191L14.6623 14.7207L0.775391 28.6649Z" fill="#F63448"/>
<defs>
<linearGradient id="paint0_linear_13_235" x1="-6.20625" y1="21.6824" x2="7.75928" y2="7.71647" gradientUnits="userSpaceOnUse">
<stop stop-color="#00E2FF"/>
<stop offset="1" stop-color="#00C5FF"/>
</linearGradient>
</defs>
</svg>
